<?xml version="1.0" encoding="utf-8"?>
<!-- Generator: Adobe Illustrator 21.0.2, SVG Export Plug-In . SVG Version: 6.00 Build 0)  -->
<svg version="1.1" id="Capa_1" xmlns="http://www.w3.org/2000/svg" xmlns:xlink="http://www.w3.org/1999/xlink" x="0px" y="0px"
	 viewBox="0 0 58 58" style="enable-background:new 0 0 58 58;" xml:space="preserve">
<style type="text/css">
	.st0{fill:#E4AF18;}
	.st1{fill:#CE9912;}
	.st2{fill:#FCC62D;}
	.st3{fill:#FFD949;}
	.st4{fill:#F0C41B;}
</style>
<g id="XMLID_22_">
	<path id="XMLID_118_" class="st0" d="M29,36.7c-14.4,0-26-6.1-26-13v8.4c0,6.9,11.6,12.6,26,12.6s26-5.6,26-12.6v-8.4
		C55,30.6,43.4,36.7,29,36.7"/>
	<path id="XMLID_117_" class="st1" d="M6,38.1c0.6,0.5,1.3,1.1,2,1.5v-8.3c-0.7-0.5-1.4-1-2-1.6V38.1z"/>
	<path id="XMLID_116_" class="st1" d="M50,31.3v8.3c0.7-0.5,1.4-1,2-1.5v-8.3C51.4,30.3,50.7,30.8,50,31.3"/>
	<path id="XMLID_115_" class="st1" d="M10,40.8c0.6,0.3,1.3,0.6,2,0.9v-8.2c-0.7-0.3-1.4-0.6-2-1V40.8z"/>
	<path id="XMLID_114_" class="st1" d="M46,41.7c0.7-0.3,1.4-0.6,2-0.9v-8.2c-0.6,0.3-1.3,0.7-2,1V41.7z"/>
	<path id="XMLID_113_" class="st1" d="M14,42.5c0.6,0.2,1.3,0.4,2,0.6V35c-0.7-0.2-1.4-0.4-2-0.7V42.5z"/>
	<path id="XMLID_112_" class="st1" d="M42,43.1c0.7-0.2,1.4-0.4,2-0.6v-8.2c-0.6,0.2-1.3,0.5-2,0.7V43.1z"/>
	<path id="XMLID_111_" class="st1" d="M19,43.8c0.7,0.1,1.3,0.2,2,0.4v-8c-0.7-0.1-1.3-0.2-2-0.4V43.8z"/>
	<path id="XMLID_110_" class="st1" d="M37,44.2c0.7-0.1,1.3-0.2,2-0.4v-8.1c-0.7,0.1-1.3,0.3-2,0.4V44.2z"/>
	<path id="XMLID_109_" class="st1" d="M25,44.6c0.7,0,1.3,0.1,2,0.1v-8c-0.7,0-1.3-0.1-2-0.1V44.6z"/>
	<path id="XMLID_108_" class="st1" d="M31,44.7c0.7,0,1.3-0.1,2-0.1v-8c-0.7,0.1-1.3,0.1-2,0.1V44.7z"/>
	<path id="XMLID_107_" class="st2" d="M55,23.7c0,6.9-11.6,13-26,13s-26-6.1-26-13s11.6-12,26-12S55,16.8,55,23.7"/>
	<path id="XMLID_106_" class="st3" d="M29,32.7c-13.7,0-22-5.3-22-9c0-3.7,8.3-9,22-9s22,5.3,22,9C51,27.4,42.7,32.7,29,32.7"/>
	<path id="XMLID_105_" class="st4" d="M35.8,25.1c0.8-0.2,1.3-0.7,1.1-1.3l-0.2-0.6c-0.1-0.5-0.7-0.8-1.3-1
		c-0.9-1.9-3.2-2.6-6.6-2.6c-0.2,0-0.3,0-0.5,0c-1.2,0-2.3-0.1-3.2-0.4c-0.4-0.1-0.7-0.3-0.9-0.4c-0.1-0.1-0.3,0-0.3,0.1
		c0,0.1,0,0.3,0,0.5c0.1,0.7,0,0.6-0.8,1.4c-0.4,0.4-0.8,0.9-1,1.5c-0.7,0.2-1.2,0.6-1.3,1l-0.2,0.6c-0.2,0.6,0.3,1.1,1.1,1.3
		c0.2,1.5,1.2,2.8,3.4,3.5l-0.1,1c0,0.3-0.3,0.5-0.6,0.7L20,31.9c2.6,0.5,5.5,0.9,8.8,0.9c3.2,0,6.1-0.3,8.6-0.8l-4.3-1.6
		c-0.3-0.1-0.6-0.4-0.6-0.7l-0.1-1C34.5,27.9,35.6,26.6,35.8,25.1"/>
</g>
</svg>
