<?xml version="1.0" encoding="utf-8"?>
<!-- Generator: Adobe Illustrator 21.0.2, SVG Export Plug-In . SVG Version: 6.00 Build 0)  -->
<svg version="1.1" id="Capa_1" xmlns="http://www.w3.org/2000/svg" xmlns:xlink="http://www.w3.org/1999/xlink" x="0px" y="0px"
	 viewBox="0 0 58 58" style="enable-background:new 0 0 58 58;" xml:space="preserve">
<style type="text/css">
	.st0{fill:#E4AF18;}
	.st1{fill:#CE9912;}
	.st2{fill:#FFD949;}
	.st3{fill:#FCC62D;}
	.st4{fill:#F0C41B;}
</style>
<g id="XMLID_22_">
	<path id="XMLID_131_" class="st0" d="M26,43.8c-14.4,0-26-6.1-26-13v8.4c0,6.9,11.6,12.6,26,12.6s26-5.6,26-12.6v-8.4
		C52,37.7,40.4,43.8,26,43.8"/>
	<path id="XMLID_130_" class="st1" d="M3,45.2c0.6,0.5,1.3,1.1,2,1.5v-8.3c-0.7-0.5-1.4-1-2-1.6C3,36.8,3,45.2,3,45.2z"/>
	<path id="XMLID_129_" class="st1" d="M47,38.4v8.3c0.7-0.5,1.4-1,2-1.5v-8.3C48.4,37.4,47.7,37.9,47,38.4"/>
	<path id="XMLID_128_" class="st1" d="M7,47.9c0.6,0.3,1.3,0.6,2,0.9v-8.2c-0.7-0.3-1.4-0.6-2-1C7,39.6,7,47.9,7,47.9z"/>
	<path id="XMLID_127_" class="st1" d="M43,48.8c0.7-0.3,1.4-0.6,2-0.9v-8.2c-0.6,0.3-1.3,0.7-2,1V48.8z"/>
	<path id="XMLID_126_" class="st1" d="M11,49.6c0.6,0.2,1.3,0.4,2,0.6v-8.1c-0.7-0.2-1.4-0.4-2-0.7V49.6z"/>
	<path id="XMLID_125_" class="st1" d="M39,50.2c0.7-0.2,1.4-0.4,2-0.6v-8.2c-0.6,0.2-1.3,0.5-2,0.7V50.2z"/>
	<path id="XMLID_124_" class="st1" d="M16,50.9c0.7,0.1,1.3,0.2,2,0.4v-8c-0.7-0.1-1.3-0.2-2-0.4V50.9z"/>
	<path id="XMLID_123_" class="st1" d="M34,51.2c0.7-0.1,1.3-0.2,2-0.4v-8.1c-0.7,0.1-1.3,0.3-2,0.4V51.2z"/>
	<path id="XMLID_122_" class="st1" d="M22,51.7c0.7,0,1.3,0.1,2,0.1v-8c-0.7,0-1.3-0.1-2-0.1V51.7z"/>
	<path id="XMLID_121_" class="st1" d="M28,51.8c0.7,0,1.3-0.1,2-0.1v-8c-0.7,0.1-1.3,0.1-2,0.1V51.8z"/>
	<path id="XMLID_119_" class="st2" d="M31,41.8c-14.4,0-26-5.6-26-12.6v-5.7c-3.1,2-5,4.4-5,7.2c0,6.9,11.6,13,26,13
		c6.9,0,13.2-1.4,17.8-3.6C40.1,41.2,35.7,41.8,31,41.8"/>
	<path id="XMLID_118_" class="st0" d="M31,33.8c-14.4,0-26-6.1-26-13v8.4c0,6.9,11.6,12.6,26,12.6s26-5.6,26-12.6v-8.4
		C57,27.7,45.4,33.8,31,33.8"/>
	<path id="XMLID_117_" class="st1" d="M8,35.2c0.6,0.5,1.3,1.1,2,1.5v-8.3c-0.7-0.5-1.4-1-2-1.6V35.2z"/>
	<path id="XMLID_116_" class="st1" d="M52,28.4v8.3c0.7-0.5,1.4-1,2-1.5v-8.3C53.4,27.4,52.7,27.9,52,28.4"/>
	<path id="XMLID_115_" class="st1" d="M12,37.9c0.6,0.3,1.3,0.6,2,0.9v-8.2c-0.7-0.3-1.4-0.6-2-1V37.9z"/>
	<path id="XMLID_114_" class="st1" d="M48,38.8c0.7-0.3,1.4-0.6,2-0.9v-8.2c-0.6,0.3-1.3,0.7-2,1V38.8z"/>
	<path id="XMLID_113_" class="st1" d="M16,39.6c0.6,0.2,1.3,0.4,2,0.6v-8.1c-0.7-0.2-1.4-0.4-2-0.7V39.6z"/>
	<path id="XMLID_112_" class="st1" d="M44,40.2c0.7-0.2,1.4-0.4,2-0.6v-8.2c-0.6,0.2-1.3,0.5-2,0.7V40.2z"/>
	<path id="XMLID_111_" class="st1" d="M21,40.9c0.7,0.1,1.3,0.2,2,0.4v-8c-0.7-0.1-1.3-0.2-2-0.4V40.9z"/>
	<path id="XMLID_110_" class="st1" d="M39,41.2c0.7-0.1,1.3-0.2,2-0.4v-8.1c-0.7,0.1-1.3,0.3-2,0.4V41.2z"/>
	<path id="XMLID_109_" class="st1" d="M27,41.7c0.7,0,1.3,0.1,2,0.1v-8c-0.7,0-1.3-0.1-2-0.1V41.7z"/>
	<path id="XMLID_108_" class="st1" d="M33,41.8c0.7,0,1.3-0.1,2-0.1v-8c-0.7,0.1-1.3,0.1-2,0.1V41.8z"/>
	<path id="XMLID_107_" class="st3" d="M57,20.8c0,6.9-11.6,13-26,13s-26-6.1-26-13s11.6-12,26-12S57,13.9,57,20.8"/>
	<path id="XMLID_106_" class="st2" d="M31,29.8c-13.7,0-22-5.3-22-9c0-3.7,8.3-9,22-9s22,5.3,22,9C53,24.5,44.7,29.8,31,29.8"/>
	<path id="XMLID_105_" class="st4" d="M37.8,22.2c0.8-0.2,1.3-0.7,1.1-1.3l-0.2-0.6c-0.1-0.5-0.7-0.8-1.3-1
		c-0.9-1.9-3.2-2.6-6.6-2.6c-0.2,0-0.3,0-0.5,0c-1.2,0-2.3-0.1-3.2-0.4c-0.4-0.1-0.7-0.3-0.9-0.4c-0.1-0.1-0.3,0-0.3,0.1
		c0,0.1,0,0.3,0,0.5c0.1,0.7,0,0.6-0.8,1.4c-0.4,0.4-0.8,0.9-1,1.5c-0.7,0.2-1.2,0.6-1.3,1l-0.2,0.6c-0.2,0.6,0.3,1.1,1.1,1.3
		c0.2,1.5,1.2,2.8,3.4,3.5l-0.1,1c0,0.3-0.3,0.5-0.6,0.7L22,28.9c2.6,0.5,5.5,0.9,8.8,0.9c3.2,0,6.1-0.3,8.6-0.8l-4.3-1.6
		c-0.3-0.1-0.6-0.4-0.6-0.7l-0.1-1C36.5,24.9,37.6,23.6,37.8,22.2"/>
</g>
</svg>
