<?xml version="1.0" encoding="iso-8859-1"?>
<!-- Generator: Adobe Illustrator 19.0.0, SVG Export Plug-In . SVG Version: 6.00 Build 0)  -->
<svg version="1.1" id="Capa_1" xmlns="http://www.w3.org/2000/svg" xmlns:xlink="http://www.w3.org/1999/xlink" x="0px" y="0px"
	 viewBox="0 0 512 512" style="enable-background:new 0 0 512 512;" xml:space="preserve">
<circle style="fill:#F74C83;" cx="256" cy="256" r="256"/>
<path style="fill:#49D3DD;" d="M435.723,154.266v186.26c-36.575,38.899-88.513,63.186-146.117,63.186
	c-41.895,0-80.802-12.852-112.972-34.831c-7.481-5.107-14.603-10.707-21.308-16.764c-4.101-3.7-8.055-7.564-11.837-11.591v-186.26
	H435.723z"/>
<rect x="143.485" y="175.553" style="fill:#1ABEC6;" width="292.237" height="34.38"/>
<path style="fill:#49D3DD;" d="M439.896,192.74H139.312c-11.031,0-19.974-8.942-19.974-19.974v-57.463
	c0-11.031,8.942-19.974,19.974-19.974h300.583c11.031,0,19.974,8.942,19.974,19.974v57.463
	C459.869,183.796,450.927,192.74,439.896,192.74z"/>
<path style="fill:#FFE05F;" d="M196.884,2.608L196.884,2.608c51.208,0,92.72,41.512,92.72,92.72l0,0h-89.525
	c-25.604,0-46.36-20.756-46.36-46.36v-3.195C153.719,21.933,173.044,2.608,196.884,2.608z"/>
<path style="fill:#E5C74A;" d="M238.851,44.575L238.851,44.575c28.029,0,50.752,22.722,50.752,50.752l0,0h-49.004
	c-14.015,0-25.376-11.361-25.376-25.376v-1.749C215.225,55.154,225.802,44.575,238.851,44.575z"/>
<path style="fill:#FFE05F;" d="M382.324,2.608L382.324,2.608c-51.208,0-92.72,41.512-92.72,92.72l0,0h89.525
	c25.604,0,46.36-20.756,46.36-46.36v-3.195C425.489,21.933,406.163,2.608,382.324,2.608z"/>
<path style="fill:#E5C74A;" d="M340.356,44.575L340.356,44.575c-28.029,0-50.752,22.722-50.752,50.752l0,0h49.004
	c14.015,0,25.376-11.361,25.376-25.376v-1.749C363.983,55.154,353.404,44.575,340.356,44.575z"/>
<path style="fill:#FFE05F;" d="M328.489,95.328V399.94c-12.582,2.481-25.581,3.774-38.883,3.774c-12.582,0-24.893-1.162-36.836-3.38
	c-0.688-0.122-1.367-0.254-2.047-0.393V95.328H328.489z"/>
<rect x="250.723" y="192.742" style="fill:#E5C74A;" width="77.761" height="17.191"/>
<path style="fill:#E5B691;" d="M497.601,340.867v0.01c-3.145,8.944-6.781,17.669-10.857,26.133
	c-1.912,1.609-4.054,3.009-6.405,4.148l-158.824,77.03c-15.966,7.743-34.189,9.477-51.325,4.88L98.022,406.904
	c-8.861-2.372-18.275-1.39-26.457,2.759l-14.566,7.387C28.442,381.827,9.07,338.86,2.487,291.798
	c-0.01-0.094-0.031-0.199-0.042-0.293l77.678-58.326c23.239-17.46,53.321-23.834,81.304-15.956c1.128,0.324,2.257,0.658,3.385,1.024
	l152.398,48.797c7.973,2.55,13.814,8.599,16.415,15.882c1.003,2.759,1.526,5.695,1.526,8.694c0,2.978-0.522,6.008-1.62,8.965
	c-4.671,12.591-18.223,19.487-31.148,15.872l-96.475-27.021c-2.163-0.606-4.347-0.899-6.478-0.899
	c-10.982,0-20.94,7.628-23.353,18.892c-0.021,0.073-0.042,0.146-0.052,0.219c-2.508,12.236,4.817,24.346,16.823,27.794
	l110.613,31.786c9.832,2.821,20.334,2.236,29.78-1.682l121.877-50.531c3.845-1.599,7.847-2.351,11.776-2.351
	c11.421,0,22.34,6.384,27.658,17.23c0.721,1.463,1.306,2.957,1.776,4.462C496.995,336.509,497.413,338.683,497.601,340.867z"/>
<path style="fill:#F7CEA6;" d="M496.327,334.357c-1.442,9.728-7.513,18.599-17.032,23.218l-158.824,77.03
	c-15.966,7.743-34.189,9.477-51.325,4.88L96.977,393.32c-8.861-2.372-18.275-1.39-26.457,2.759l-21.337,10.836
	C24.858,373.635,8.37,334.252,2.445,291.506l77.678-58.326c23.239-17.46,53.321-23.834,81.304-15.956
	c1.128,0.324,2.257,0.658,3.385,1.024l152.398,48.797c7.973,2.55,13.814,8.599,16.415,15.882c-0.261,1.369-0.637,2.727-1.139,4.075
	c-4.671,12.591-18.223,19.487-31.148,15.872l-96.475-27.021c-2.163-0.606-4.347-0.899-6.478-0.899
	c-11.055,0-21.065,7.732-23.406,19.111c-0.951,4.629-0.491,9.237,1.097,13.364c-0.021,0.073-0.042,0.146-0.052,0.219
	c-2.508,12.236,4.817,24.346,16.823,27.794l110.613,31.786c9.832,2.821,20.334,2.236,29.78-1.682l121.877-50.531
	c3.845-1.599,7.847-2.351,11.776-2.351c11.421,0,22.34,6.384,27.658,17.23C495.271,331.358,495.856,332.852,496.327,334.357z"/>
<g>
</g>
<g>
</g>
<g>
</g>
<g>
</g>
<g>
</g>
<g>
</g>
<g>
</g>
<g>
</g>
<g>
</g>
<g>
</g>
<g>
</g>
<g>
</g>
<g>
</g>
<g>
</g>
<g>
</g>
</svg>
